<svg id="Capa_1" data-name="Capa 1" xmlns="http://www.w3.org/2000/svg" viewBox="0 0 219.16 72.31"><defs><style>.cls-1,.cls-3{fill:#e52037;}.cls-1,.cls-2{fill-rule:evenodd;}.cls-2{fill:#4d2680;}.cls-3{font-size:6.45px;font-family:ArialMT, Arial;}</style></defs><title>logo_digitel_svg_color</title><path class="cls-1" d="M9.37,37.19V14.57h9s9.28,0,9.37,11S18.56,37.1,18.56,37.1l-9.19.09ZM1,11.07V37.58c0,.88-.35,6,4.55,6H17.46c10.31,0,18.71-6.16,18.65-18.37-.06-11.57-9.41-16.3-16.18-16.8C12.69,7.89,3.58,8,1,11.07Z" transform="translate(-1.02 -2.74)"/><path class="cls-1" d="M42.86,8.06l.07,25.83v7a2.8,2.8,0,0,0,2.78,2.79H48.3a2.8,2.8,0,0,0,2.78-2.79V10.35c-1.24-3.7-6.43-3.62-8.22-2.29Z" transform="translate(-1.02 -2.74)"/><path class="cls-1" d="M100.65,8.06l.07,25.83v7a2.8,2.8,0,0,0,2.78,2.79h2.58a2.8,2.8,0,0,0,2.79-2.79V10.35c-1.24-3.7-6.43-3.62-8.22-2.29Z" transform="translate(-1.02 -2.74)"/><path class="cls-1" d="M186.89,8.06,187,33.89v7a2.8,2.8,0,0,0,2.78,2.79h16.48c3.85,0,6.06-5.22,4.69-7l-15.8,0V10.35c-1.23-3.7-6.42-3.62-8.22-2.29Z" transform="translate(-1.02 -2.74)"/><path class="cls-1" d="M180.51,36.71q-9.91,0-19.82,0V28.82h12.72a3.46,3.46,0,0,0,3.45-3.45h0a3.47,3.47,0,0,0-3.45-3.46h-7l-5.69,0V14.77h15.14c3.85,0,6-5.21,4.68-6.95l-11.41,0H155.88c-3.63,0-3.34,4.33-3.34,4.33h0V37.58c0,.88-.35,6,4.55,6h2.65a3.36,3.36,0,0,0,.71.08h15.38c3.85,0,6-5.22,4.68-7Z" transform="translate(-1.02 -2.74)"/><path class="cls-1" d="M145.5,7.75l-20.29.06h-6.84A3.2,3.2,0,0,0,115.18,11h0a3.19,3.19,0,0,0,3.19,3.19h1l.3,0h7.11l.06,19.68a.91.91,0,0,0,0,.17v6.82a2.8,2.8,0,0,0,2.79,2.79h2.58A2.8,2.8,0,0,0,135,40.88V14.21h7.35c3.73,0,4.18-5.05,3.13-6.46Z" transform="translate(-1.02 -2.74)"/><path class="cls-2" d="M75,15.48h2A9,9,0,0,1,86,24.4v2A9,9,0,0,1,77,35.36H75a8.94,8.94,0,0,1-8.92-8.92v-2A9,9,0,0,1,75,15.48ZM72.83,8.94h3.9a9.59,9.59,0,0,1,4.44-4.7A12,12,0,0,1,89.05,3,2.77,2.77,0,0,1,91,6c-.18,1.42-1.5,2.48-3.85,2.21a3.18,3.18,0,0,0-2.72,1.7A14.84,14.84,0,0,1,94,23.74v3.37A14.84,14.84,0,0,1,79.21,41.9H76c-3,2.28-5.26,7.26,2.6,10.62s8.22,8,8.22,10.25S85.16,75.31,75.79,75s-7.6-7.41-7.6-7.41a43.91,43.91,0,0,0,5.39.36c2.83,0,6-2.39,5.84-5.22s-2-3.35-7.69-6.18-6.54-6.45-6.63-9.72c-.06-2.4,1.53-4.84,2.39-6A14.85,14.85,0,0,1,58,27.11V23.74A14.83,14.83,0,0,1,72.83,8.94Z" transform="translate(-1.02 -2.74)"/><path class="cls-1" d="M215.32,6.53a4.86,4.86,0,1,1-4.86,4.86,4.87,4.87,0,0,1,4.86-4.86Zm0,1.1a3.76,3.76,0,1,1-3.76,3.76,3.76,3.76,0,0,1,3.76-3.76Z" transform="translate(-1.02 -2.74)"/><text class="cls-3" transform="translate(211.76 10.96)">R</text></svg>